<svg width="71" height="70" viewBox="0 0 71 70" fill="none" xmlns="http://www.w3.org/2000/svg">
<g clip-path="url(#clip0_34_97)">
<path d="M70.1765 35.2354C70.2542 54.2433 54.54 70.0235 35.2881 69.9376C16.2125 69.8517 0.629425 54.3114 0.640753 35.2159C0.652082 15.9859 16.1964 0.393753 35.3496 0.401859C54.6824 0.409964 70.1781 15.9097 70.1765 35.2354Z" fill="#C3C3C3"/>
<g clip-path="url(#clip1_34_97)">
<path d="M12.3474 33.1116C14.9651 30.0186 17.5948 26.9352 20.181 23.8181C21.9745 21.6559 24.2795 20.6602 27.0571 20.6505C31.0054 20.6385 34.9561 20.6313 38.9044 20.6505C39.9757 20.6553 40.8725 20.3403 41.6239 19.5802C41.9802 19.2195 42.2274 18.837 42.1886 18.3127C42.1014 17.1294 42.6709 16.2515 43.4999 15.4771C44.496 14.5439 45.4728 13.589 46.4447 12.6293C46.7816 12.2974 48.3692 11.0107 49.8452 12.4802C52.8289 15.453 55.8004 18.4378 58.7865 21.4082C59.0919 21.7112 60.0735 23.0172 58.7089 24.2751C57.5576 25.3358 56.4839 26.4782 55.3738 27.5822C54.9448 28.0103 54.4988 28.5034 53.8905 28.5659C52.6738 28.691 52.0824 29.4967 51.3674 30.3457C48.0274 34.3118 43.6865 35.411 38.742 34.2926C37.3508 33.9775 35.9887 33.7827 34.5732 33.7947C32.0743 33.8188 29.5778 33.7923 27.079 33.8019C26.0876 33.8043 25.1303 33.6552 24.3377 33.0395C23.7099 32.5536 23.2712 32.7172 22.7817 33.2223C21.3565 34.6918 19.9144 36.1445 18.4722 37.5972C16.1285 39.9591 14.3155 40.0433 11.9645 37.7103C10.2678 36.0315 12.0978 33.4075 12.3474 33.1116ZM32.8475 22.5362C32.8475 22.541 32.8475 22.5458 32.8475 22.5482C30.7485 22.5482 28.6495 22.5193 26.553 22.5578C24.6843 22.5915 23.0943 23.3082 21.88 24.7345C19.2527 27.8251 16.6399 30.9278 14.0368 34.04C13.1182 35.1392 13.106 36.3129 13.9495 37.0344C14.7639 37.7319 15.8449 37.5852 16.8386 36.5919C18.6007 34.8289 20.3385 33.0443 22.0933 31.2717C22.5005 30.8604 22.755 30.4227 22.8253 29.8142C23.0798 27.5918 24.425 26.3868 26.6984 26.3459C28.8362 26.3075 30.9763 26.3099 33.1141 26.3435C33.8655 26.3556 35.0361 26.0693 35.0482 27.1926C35.0604 28.4216 33.8436 28.0825 33.0656 28.1017C30.9279 28.1522 28.7877 28.0897 26.6524 28.1642C25.426 28.2075 24.7134 28.9916 24.7207 30.0523C24.7279 31.1154 25.4647 31.8177 26.6839 31.9042C27.045 31.9307 27.411 31.9115 27.7722 31.9211C32.0622 32.0606 36.3328 31.7527 40.635 32.6907C44.3579 33.5013 47.7075 32.0558 50.124 28.9315C50.6184 28.2917 50.8075 27.7313 50.1046 27.0531C48.1074 25.1289 46.1466 23.1639 44.1931 21.1965C43.6574 20.6578 43.2163 20.6265 42.6612 21.1652C41.59 22.2091 40.2496 22.5506 38.7784 22.5386C36.803 22.5217 34.8253 22.5362 32.8475 22.5362ZM52.9501 26.8246C53.2506 26.8438 53.5172 26.7428 53.7208 26.5432C54.8406 25.4512 55.9531 24.3545 57.0583 23.2481C57.5091 22.7983 57.1771 22.452 56.8523 22.1297C54.2153 19.4961 51.5661 16.8696 48.9412 14.224C48.4443 13.7237 48.0371 13.666 47.5257 14.1879C46.5998 15.1331 45.6473 16.0519 44.6972 16.9707C43.9822 17.6609 43.958 18.332 44.6705 19.0391C47.1209 21.4635 49.5665 23.8951 52.0169 26.3195C52.2763 26.5744 52.5598 26.8053 52.9501 26.8246Z" fill="#1B1D22"/>
<path d="M37.3753 27.3782C37.4165 26.8562 37.7001 26.5531 38.2116 26.5627C38.7182 26.5723 39.0285 26.8706 39.0091 27.395C38.9897 27.9026 38.677 28.2225 38.1777 28.2201C37.671 28.2201 37.4092 27.8761 37.3753 27.3782Z" fill="#1B1D22"/>
<path d="M32.1093 38.7977C37.1483 40.3707 40.1828 45.0968 39.4242 50.215C38.6849 55.1937 34.3537 58.9553 29.2977 59.0082C24.1836 59.0636 19.8088 55.4246 18.9071 50.3641C18.0152 45.3662 21.0739 40.5006 26.0645 38.8362C29.3874 37.7298 31.673 38.6606 32.1093 38.7977ZM20.6837 48.6949C20.6886 53.4211 24.4575 57.137 29.2299 57.1178C33.8883 57.0985 37.6791 53.3128 37.6766 48.6829C37.6742 43.9977 33.8495 40.248 29.0966 40.2649C24.4018 40.2841 20.6813 44.0145 20.6837 48.6949Z" fill="#1B1D22"/>
<path d="M29.862 50.6451C29.8353 50.1136 29.5469 49.8201 29.0718 49.6903C28.7228 49.5941 28.3568 49.546 28.0199 49.4209C26.3378 48.798 25.6131 46.8474 26.602 45.3802C27.1862 44.512 28.1411 43.9059 28.2332 42.7081C28.2599 42.3521 28.7131 42.1934 29.1179 42.2632C29.5784 42.3449 29.8499 42.6744 29.8644 43.0929C29.8911 43.8626 30.2837 44.322 30.8969 44.7284C31.3792 45.0483 31.7792 45.5366 31.3356 46.1451C30.9066 46.7319 30.3564 46.5395 29.8329 46.2317C29.4063 45.9815 28.9652 45.7651 28.4853 46.1066C28.2066 46.3062 28.0296 46.5804 28.1048 46.9291C28.2381 47.5545 28.7495 47.6699 29.2875 47.7734C30.4921 48.0067 31.3599 48.6585 31.6774 49.8755C31.9949 51.0949 31.5562 52.0882 30.5843 52.841C30.1698 53.1633 29.9468 53.5241 29.9104 54.0436C29.8717 54.5992 29.6657 55.0995 29.0064 55.1235C28.3471 55.1476 28.0757 54.6762 28.0466 54.1109C28.0151 53.476 27.717 53.0815 27.1934 52.7665C26.9244 52.6053 26.6966 52.3576 26.4833 52.1219C26.1318 51.7298 25.9573 51.2825 26.3815 50.8399C26.7838 50.4214 27.2419 50.4864 27.6927 50.7894C27.9908 50.989 28.272 51.2464 28.604 51.3618C29.273 51.5976 29.6729 51.2632 29.862 50.6451Z" fill="#1B1D22"/>
</g>
</g>
<defs>
<clipPath id="clip0_34_97">
<rect width="69.5357" height="69.5357" fill="white" transform="translate(0.640686 0.401855)"/>
</clipPath>
<clipPath id="clip1_34_97">
<rect width="48.1623" height="47.218" fill="white" transform="translate(11.2512 11.7925)"/>
</clipPath>
</defs>
</svg>
