<svg width="70" height="71" viewBox="0 0 70 71" fill="none" xmlns="http://www.w3.org/2000/svg">
<g clip-path="url(#clip0_34_71)">
<circle cx="35.1862" cy="35.5354" r="34.7678" fill="#C3C3C3"/>
<g clip-path="url(#clip1_34_71)">
<path d="M57.145 37.7028C54.63 40.7102 52.1033 43.7082 49.6186 46.7391C47.8954 48.8414 45.6808 49.8096 43.0121 49.819C39.2186 49.8307 35.4229 49.8377 31.6294 49.819C30.6001 49.8143 29.7385 50.1207 29.0166 50.8596C28.6743 51.2104 28.4367 51.5823 28.474 52.0921C28.5578 53.2427 28.0106 54.0962 27.2142 54.8493C26.2571 55.7566 25.3186 56.6851 24.3848 57.6182C24.0611 57.9409 22.5358 59.192 21.1176 57.7632C18.251 54.8727 15.396 51.9705 12.5271 49.0823C12.2336 48.7877 11.2905 47.5178 12.6016 46.2947C13.7077 45.2634 14.7393 44.1526 15.8059 43.0792C16.2181 42.6629 16.6465 42.1835 17.231 42.1227C18.4 42.0011 18.9683 41.2176 19.6552 40.3921C22.8642 36.5358 27.0349 35.4671 31.7854 36.5545C33.1221 36.8609 34.4308 37.0503 35.7908 37.0386C38.1917 37.0152 40.5902 37.0409 42.9911 37.0316C43.9436 37.0292 44.8634 37.1742 45.6249 37.7729C46.228 38.2453 46.6495 38.0863 47.1199 37.5952C48.4892 36.1663 49.8748 34.7538 51.2603 33.3413C53.5122 31.0448 55.2541 30.9629 57.5129 33.2314C59.143 34.8637 57.3848 37.4151 57.145 37.7028ZM37.4488 47.9879C37.4488 47.9832 37.4488 47.9785 37.4488 47.9762C39.4655 47.9762 41.4821 48.0042 43.4965 47.9668C45.2919 47.9341 46.8195 47.2372 47.9862 45.8504C50.5105 42.8453 53.0208 39.8262 55.5219 36.8024C56.4044 35.7337 56.4161 34.5924 55.6057 33.8909C54.8233 33.2127 53.7847 33.3553 52.8299 34.3212C51.1369 36.0353 49.4672 37.7706 47.7813 39.4941C47.39 39.894 47.1455 40.3196 47.078 40.9113C46.8335 43.0721 45.5411 44.2438 43.3567 44.2835C41.3028 44.321 39.2466 44.3186 37.1927 44.2859C36.4708 44.2742 35.346 44.5525 35.3344 43.4604C35.3227 42.2653 36.4917 42.5951 37.2392 42.5764C39.2932 42.5273 41.3494 42.5881 43.401 42.5156C44.5793 42.4735 45.2639 41.7111 45.257 40.6798C45.25 39.6461 44.542 38.9633 43.3707 38.8791C43.0237 38.8533 42.6721 38.872 42.3251 38.8627C38.2033 38.7271 34.1002 39.0264 29.9667 38.1143C26.3898 37.3262 23.1716 38.7317 20.8498 41.7696C20.3748 42.3916 20.1931 42.9365 20.8685 43.596C22.7873 45.4669 24.6712 47.3775 26.5482 49.2905C27.0628 49.8143 27.4866 49.8447 28.0199 49.3209C29.0492 48.3059 30.337 47.9738 31.7505 47.9855C33.6484 47.9995 35.5486 47.9879 37.4488 47.9879ZM18.1346 43.8158C17.8458 43.7971 17.5897 43.8953 17.394 44.0894C16.3182 45.1512 15.2493 46.2175 14.1874 47.2933C13.7543 47.7306 14.0733 48.0674 14.3854 48.3807C16.919 50.9415 19.4643 53.4952 21.9862 56.0677C22.4636 56.5541 22.8549 56.6102 23.3462 56.1028C24.2358 55.1837 25.151 54.2903 26.0638 53.397C26.7508 52.7258 26.7741 52.0734 26.0894 51.3858C23.7351 49.0285 21.3854 46.6642 19.0311 44.3069C18.782 44.059 18.5095 43.8345 18.1346 43.8158Z" fill="#1B1D22"/>
<path d="M41.4798 12.6398C46.3212 14.1693 49.2367 18.7646 48.5078 23.7411C47.7976 28.582 43.6362 32.2395 38.7785 32.291C33.8649 32.3448 29.6616 28.8065 28.7954 23.8861C27.9384 19.0265 30.8772 14.2956 35.672 12.6773C38.8623 11.6015 41.0583 12.5089 41.4798 12.6398ZM30.5 22.2631C30.5046 26.8584 34.1258 30.4716 38.711 30.4529C43.1867 30.4342 46.8288 26.7532 46.8265 22.2514C46.8242 17.6959 43.1495 14.05 38.5829 14.0664C34.0722 14.0851 30.4976 17.7122 30.5 22.2631Z" fill="#1B1D22"/>
<path d="M33.0985 43.2781C33.0589 43.7856 32.7864 44.0803 32.295 44.071C31.8083 44.0616 31.5101 43.7716 31.5288 43.2617C31.5474 42.7682 31.8479 42.4571 32.3276 42.4595C32.8144 42.4595 33.0659 42.7939 33.0985 43.2781Z" fill="#1B1D22"/>
<path d="M39.3175 24.1602C39.2919 23.6434 39.0148 23.3581 38.5584 23.2318C38.223 23.1383 37.8714 23.0915 37.5477 22.9699C35.9316 22.3642 35.2353 20.4676 36.1854 19.0411C36.7466 18.1968 37.6642 17.6075 37.7526 16.4429C37.7783 16.0968 38.2137 15.9424 38.6026 16.0103C39.0451 16.0898 39.3059 16.4102 39.3199 16.8171C39.3455 17.5654 39.7227 18.0121 40.3119 18.4073C40.7753 18.7183 41.1595 19.1931 40.7334 19.7847C40.3212 20.3554 39.7926 20.1683 39.2896 19.8689C38.8797 19.6257 38.4559 19.4152 37.9948 19.7473C37.727 19.9414 37.557 20.208 37.6292 20.5471C37.7573 21.1552 38.2487 21.2674 38.7656 21.368C39.923 21.5948 40.7567 22.2286 41.0617 23.4119C41.3668 24.5976 40.9453 25.5634 40.0115 26.2954C39.6133 26.6087 39.399 26.9595 39.3641 27.4647C39.3268 28.0049 39.1289 28.4913 38.4955 28.5147C37.8621 28.5381 37.6013 28.0797 37.5733 27.5301C37.5431 26.9128 37.2566 26.5292 36.7536 26.2229C36.4951 26.0662 36.2762 25.8253 36.0713 25.5961C35.7337 25.2149 35.566 24.78 35.9735 24.3497C36.3601 23.9428 36.8002 24.0059 37.2333 24.3006C37.5198 24.4947 37.7899 24.7449 38.1089 24.8571C38.7517 25.0863 39.1359 24.7613 39.3175 24.1602Z" fill="#1B1D22"/>
</g>
</g>
<defs>
<clipPath id="clip0_34_71">
<rect width="69.5357" height="69.5357" fill="white" transform="translate(0.418335 0.767578)"/>
</clipPath>
<clipPath id="clip1_34_71">
<rect width="46.2736" height="46.2736" fill="white" transform="translate(11.924 12.1582)"/>
</clipPath>
</defs>
</svg>
